<mxfile host="app.diagrams.net" modified="2022-01-25T02:38:30.091Z" agent="5.0 (Windows NT 10.0; Win64; x64) AppleWebKit/537.36 (KHTML, like Gecko) Chrome/97.0.4692.71 Safari/537.36" etag="KIxHxFbBvD-9e9yrL5OB" version="16.4.5" type="github">
  <diagram id="zacrkn34sIO4L3OqYdmY" name="Page-1">
    <mxGraphModel dx="1422" dy="762" grid="1" gridSize="10" guides="1" tooltips="1" connect="1" arrows="1" fold="1" page="1" pageScale="1" pageWidth="1100" pageHeight="850" math="0" shadow="0">
      <root>
        <mxCell id="0" />
        <mxCell id="1" parent="0" />
        <mxCell id="ohWERltiv4rnFWLkneOm-5" value="" style="rounded=0;whiteSpace=wrap;html=1;strokeWidth=3;dashed=1;dashPattern=1 4;fillColor=none;strokeColor=#00CC00;" vertex="1" parent="1">
          <mxGeometry x="200" y="450" width="870" height="130" as="geometry" />
        </mxCell>
        <mxCell id="ohWERltiv4rnFWLkneOm-1" value="" style="shape=flexArrow;endArrow=classic;html=1;rounded=0;strokeWidth=3;" edge="1" parent="1">
          <mxGeometry width="50" height="50" relative="1" as="geometry">
            <mxPoint x="50" y="620" as="sourcePoint" />
            <mxPoint x="1100" y="620" as="targetPoint" />
          </mxGeometry>
        </mxCell>
        <mxCell id="ohWERltiv4rnFWLkneOm-2" value="研发测试完毕" style="rounded=1;whiteSpace=wrap;html=1;strokeWidth=3;fillColor=none;" vertex="1" parent="1">
          <mxGeometry x="80" y="490" width="80" height="60" as="geometry" />
        </mxCell>
        <mxCell id="ohWERltiv4rnFWLkneOm-3" value="配置参数" style="rounded=1;whiteSpace=wrap;html=1;strokeWidth=3;fillColor=none;strokeColor=#00CC00;fontColor=#00CC00;" vertex="1" parent="1">
          <mxGeometry x="210" y="490" width="100" height="60" as="geometry" />
        </mxCell>
        <mxCell id="ohWERltiv4rnFWLkneOm-6" value="&lt;font color=&quot;#00cc00&quot;&gt;持续交付- 自动化上线流程&lt;/font&gt;" style="text;html=1;align=center;verticalAlign=middle;resizable=0;points=[];autosize=1;strokeColor=none;fillColor=none;" vertex="1" parent="1">
          <mxGeometry x="560" y="460" width="150" height="20" as="geometry" />
        </mxCell>
        <mxCell id="ohWERltiv4rnFWLkneOm-8" value="DBMS/No SQL初始化与依赖" style="rounded=1;whiteSpace=wrap;html=1;strokeWidth=3;fillColor=none;strokeColor=#00CC00;fontColor=#00CC00;" vertex="1" parent="1">
          <mxGeometry x="360" y="490" width="100" height="60" as="geometry" />
        </mxCell>
        <mxCell id="ohWERltiv4rnFWLkneOm-9" value="接口/服务暴露与依赖" style="rounded=1;whiteSpace=wrap;html=1;strokeWidth=3;fillColor=none;strokeColor=#00CC00;fontColor=#00CC00;" vertex="1" parent="1">
          <mxGeometry x="510" y="490" width="100" height="60" as="geometry" />
        </mxCell>
        <mxCell id="ohWERltiv4rnFWLkneOm-10" value="其他中间件依赖" style="rounded=1;whiteSpace=wrap;html=1;strokeWidth=3;fillColor=none;strokeColor=#00CC00;fontColor=#00CC00;" vertex="1" parent="1">
          <mxGeometry x="660" y="490" width="100" height="60" as="geometry" />
        </mxCell>
        <mxCell id="ohWERltiv4rnFWLkneOm-12" value="灰度 -&amp;gt; 全量" style="rounded=1;whiteSpace=wrap;html=1;strokeWidth=3;fillColor=none;strokeColor=#00CC00;fontColor=#00CC00;" vertex="1" parent="1">
          <mxGeometry x="810" y="490" width="100" height="60" as="geometry" />
        </mxCell>
        <mxCell id="ohWERltiv4rnFWLkneOm-13" value="量化交付" style="rounded=1;whiteSpace=wrap;html=1;strokeWidth=3;fillColor=none;strokeColor=#00CC00;fontColor=#00CC00;" vertex="1" parent="1">
          <mxGeometry x="960" y="490" width="100" height="60" as="geometry" />
        </mxCell>
      </root>
    </mxGraphModel>
  </diagram>
</mxfile>
